<svg width="237" height="90" viewBox="0 0 237 90" fill="none" xmlns="http://www.w3.org/2000/svg">
<path d="M102.974 0.481883C101.119 1.11522 99.4453 2.11044 97.9977 3.42234C96.55 4.73425 95.3739 6.27234 94.5596 8.03662C93.3382 11.0223 93.112 14.3699 93.9262 17.4914L94.5143 19.5271L96.0072 19.3009C98.8119 18.6676 101.39 17.3104 103.471 15.3652C105.01 13.8271 106.14 11.9271 106.774 9.84615C107.407 7.7652 107.588 5.54853 107.226 3.42234C107.045 2.47235 106.819 1.52236 106.502 0.572362C106.14 -0.151446 104.783 -0.196687 102.974 0.481883Z" fill="#111111"/>
<path d="M77.2335 5.18656C76.2835 8.35322 76.374 11.7461 77.4597 14.9127C78.9978 18.8937 83.7025 22.6937 87.6834 23.2365C89.0406 23.4175 89.131 23.3722 89.5382 22.2413C90.1715 20.5222 90.4882 18.7127 90.4429 16.9032C90.3977 15.0937 89.9453 13.2842 89.2215 11.6556C88.4525 9.98179 87.412 8.53417 86.0549 7.2675C84.743 6.04608 83.1597 5.05084 81.4406 4.46275C78.0478 3.28656 78.0026 3.28656 77.2335 5.18656Z" fill="#111111"/>
<path d="M26.3411 35.7223C29.9601 37.8485 31.5887 41.8294 31.5887 48.5246C31.5887 57.5722 28.4672 62.0508 21.953 62.458C16.7959 62.7294 13.8102 60.9651 11.5935 56.3056C10.4174 53.908 10.4174 53.7723 10.4174 48.7056C10.4174 44.1818 10.5079 43.3223 11.2317 41.558C12.3174 38.7985 14.3983 36.5366 17.0673 35.2699C20.0982 34.1842 23.4458 34.3199 26.3411 35.7223ZM14.534 26.5842C11.6388 27.4437 9.01501 28.9818 6.79836 31.0175C4.58171 33.0533 2.86267 35.5866 1.77697 38.3461C-0.665871 45.0866 -0.575391 52.4151 1.95792 59.1103C3.40553 62.4127 5.62219 65.3532 8.47217 67.6151C11.684 69.9675 13.9459 70.7365 18.5602 70.9175C22.9482 71.0984 25.8887 70.5103 28.603 69.0627C29.1458 68.746 29.7339 68.4294 30.322 68.1579C30.6386 68.1579 30.4125 74.1294 30.0958 75.396C29.6434 76.527 28.9196 77.5675 28.0601 78.3817C27.2006 79.196 26.1149 79.8746 24.9839 80.327C23.5363 80.7341 22.0887 80.9603 20.5959 80.9151C19.1935 81.0055 17.8364 80.7794 16.5245 80.2365C15.2578 79.6936 14.0817 78.8793 13.1769 77.8389L12.046 76.4817L7.79359 78.5627C6.25551 79.196 4.80789 80.0555 3.54124 81.096C4.26504 82.227 5.12456 83.2674 6.11979 84.1722C10.5078 88.6055 15.0316 90.2793 21.953 89.9627C29.9148 89.6007 35.66 86.6603 38.2386 81.5936C39.9576 78.2008 40.0028 77.3412 40.0028 51.3294V26.9914H31.8601V28.3937C31.9053 28.8914 31.8601 29.3437 31.7244 29.7961C31.6339 29.7961 30.7744 29.208 29.7339 28.5747C26.7934 26.6747 23.3554 25.7699 19.8721 25.9509C18.0626 26.0414 16.2983 26.2223 14.534 26.5842Z" fill="#111111"/>
<path d="M94.1976 35.451C95.6452 35.9939 96.9571 36.8534 98.0428 37.9391C99.1285 39.0248 99.988 40.3367 100.576 41.7844C101.3 43.6391 101.39 44.4986 101.39 48.5248C101.39 52.4605 101.3 53.4105 100.621 55.1296C99.8523 57.6177 98.1785 59.6534 95.9166 60.92C94.1976 61.87 93.7 61.9605 90.6238 61.9605C87.6381 61.9605 87.05 61.87 85.1953 60.92C81.6215 59.201 79.6763 55.4915 79.3596 49.8367C79.1334 44.9963 80.0382 41.151 82.1643 38.482C84.5619 35.3153 89.5833 34.0939 94.1976 35.451ZM84.3357 26.6749C81.6215 27.4439 79.1334 28.7558 76.962 30.5201C74.7906 32.2844 73.0263 34.501 71.7144 36.9891C69.8597 40.5177 69.0002 44.4986 69.1811 48.5248C69.2263 55.9438 70.9001 60.5581 75.3334 65.0367C79.4953 69.2891 83.8834 71.0081 90.2619 71.0081C96.8666 71.0081 101.119 69.3343 105.281 65.2176C109.669 60.7843 111.569 55.7629 111.569 48.5248C111.659 46.3082 111.433 44.1367 110.981 41.9653C110.121 38.301 108.267 34.9082 105.643 32.1939C103.019 29.4796 99.6713 27.5344 96.0071 26.5844C92.2071 25.8153 88.2262 25.8606 84.3357 26.6749Z" fill="#111111"/>
<path d="M177.526 35.27C180.014 36.4914 181.597 39.0247 182.366 42.9152L182.592 44.0914H161.512L161.738 42.8247C162.054 41.2866 162.643 39.839 163.593 38.5271C164.497 37.2605 165.719 36.22 167.076 35.4509C170.423 34.0033 174.178 33.9581 177.526 35.27ZM166.623 26.5843C163.366 27.3986 160.335 29.0724 157.893 31.3795C153.414 35.7224 151.378 40.4724 151.107 47.439C150.881 52.7319 151.514 55.8533 153.459 59.8342C154.59 62.1866 156.219 64.2675 158.164 65.9866C160.109 67.7056 162.416 69.0175 164.859 69.8318C169.112 71.0985 173.59 71.3247 177.933 70.5104C181.507 69.6961 184.809 67.8413 187.342 65.2175C189.966 62.5937 192.138 59.1104 191.323 58.7937C191.097 58.7033 188.926 58.0699 186.664 57.3461C182.683 56.1247 182.411 56.1247 182.095 56.7128C181.416 57.6176 180.692 58.4771 179.878 59.2461C178.883 60.3771 177.571 61.1913 176.169 61.5985C172.142 62.8199 167.619 62.0056 165.04 59.6533C163.185 57.708 161.964 55.3104 161.466 52.6866L161.24 51.1938H192.138L192.364 50.4247C192.771 49.2938 192.228 43.639 191.459 40.6985C190.599 37.1247 188.79 33.8676 186.166 31.3343C182.366 27.5343 178.34 26.0414 172.142 26.0867C170.288 26.0414 168.433 26.2224 166.623 26.5843Z" fill="#111111"/>
<path d="M218.782 34.9987C224.573 37.0796 227.604 44.4082 225.975 52.551C224.663 58.9748 221.723 62.0057 216.52 62.4129C213.942 62.7296 211.363 62.1415 209.192 60.7391C207.201 58.8391 205.844 56.3962 205.256 53.682C204.759 50.2439 204.759 46.7153 205.256 43.2772C206.071 39.432 208.604 36.0844 211.409 35.0439C213.806 34.4558 216.339 34.4106 218.782 34.9987ZM212.313 26.2677C210.232 26.8106 208.242 27.7153 206.432 28.8915L204.894 29.932V27.082H196.39V89.0581H205.935V67.7962L207.292 68.6557C208.287 69.2438 209.328 69.7414 210.413 70.1486C213.987 71.0081 217.651 71.1438 221.27 70.6462C228.192 69.2438 234.254 62.6843 235.882 54.9034C236.561 50.6962 236.561 46.4439 235.882 42.2367C235.204 38.6177 233.53 35.2249 231.087 32.4653C228.644 29.7058 225.477 27.6701 221.949 26.5844C218.737 25.9963 215.48 25.9058 212.313 26.2677Z" fill="#111111"/>
<path d="M62.8027 27.0819C59.2741 27.6248 56.0623 29.389 53.8004 32.1486L52.7147 33.5509V27.0819H44.21V69.9675H53.7551V57.7985C53.7551 46.6247 53.8456 45.4485 54.4789 43.3223C54.8861 41.92 55.6099 40.6081 56.6051 39.4771C57.5551 38.3462 58.7765 37.4414 60.0884 36.8081C61.6717 35.9938 63.436 35.6319 65.2455 35.8128H68.3217V27.2176L67.236 26.9914C65.7431 26.6748 64.2503 26.72 62.8027 27.0819Z" fill="#111111"/>
<path d="M114.871 31.1986L114.962 35.3605L125.005 35.451C130.478 35.4962 135.002 35.6319 135.002 35.7224C135.002 35.8129 130.026 43.1866 123.964 52.0533C117.902 60.9652 112.881 68.6104 112.79 69.0628L112.655 69.8771H149.207V61.3723H138.576C132.74 61.3723 127.945 61.2819 127.945 61.2366C127.945 61.1461 132.967 53.7271 139.119 44.7247C145.226 35.7676 150.293 28.0772 150.293 27.7153C150.293 26.9915 149.931 26.9915 132.559 26.9915H114.781L114.871 31.1986Z" fill="#111111"/>
</svg>
