<svg width="65" height="65" viewBox="0 0 65 65" fill="none" xmlns="http://www.w3.org/2000/svg">
<path d="M55.399 42.4865C53.3471 44.2279 50.9139 45.1928 48.291 45.2509C42.3653 45.3812 36.4343 45.2914 30.3488 45.2914C30.7089 45.0255 30.9672 44.8442 31.2166 44.6487C32.4815 43.6574 32.9945 41.9829 32.4903 40.5003C31.9563 38.9296 30.5666 37.9084 28.924 37.9066C25.4772 37.9031 22.0303 37.9049 18.5835 37.9154C16.4033 37.9225 14.6025 36.292 14.7132 34.26C14.8344 32.0115 16.4823 30.6169 18.5466 30.6609C21.4664 30.7226 24.3862 30.7067 27.306 30.7226C26.9652 31.4498 27.2217 32.0132 27.7803 32.501C28.7641 33.3602 29.495 34.4555 30.4032 35.394C31.2816 36.3008 32.2461 37.0967 33.2247 37.8291C34.9112 39.0916 36.7418 40.1587 38.7024 41.0092C40.7982 41.9195 42.9978 42.4918 45.1955 42.9267C47.0367 43.2912 48.9797 43.3035 50.8946 43.1908C52.1982 43.1151 53.5193 43.2718 54.7174 42.5534C54.8948 42.4477 55.1689 42.5058 55.399 42.4865Z" fill="white"/>
<path d="M60.2374 31.411C60.4359 33.8321 60.1899 36.1634 58.8759 38.2851C58.6404 37.9541 58.47 38.2129 58.3242 38.3679C57.8183 38.9049 57.1559 39.1321 56.4743 39.2993C55.4887 39.5406 54.5032 39.7977 53.5035 39.9526C50.7225 40.3822 47.9275 40.3593 45.1675 39.8382C43.4687 39.5177 41.8085 39.0599 40.1747 38.3767C38.2193 37.5597 36.4169 36.5455 34.7813 35.2565C33.5867 34.3145 32.4061 33.3302 31.3977 32.1487C30.9866 31.6663 30.7336 31.3141 30.9848 30.7207C33.5568 30.7172 36.1288 30.7154 38.699 30.7119C38.6902 31.0429 38.3546 31.3511 38.8623 31.6856C40.9635 33.0749 43.228 34.0328 45.677 34.6033C46.4957 34.7935 47.3916 35.0136 48.1418 34.9678C50.1428 34.8463 52.1526 35.0329 54.1623 34.3656C56.3496 33.6436 58.5227 33.045 60.2374 31.411Z" fill="white"/>
<path d="M44.0483 23.8889C43.5652 23.5332 43.112 23.1317 42.5427 22.9099C42.4865 22.8782 42.4286 22.8465 42.3723 22.8148L42.3794 22.8183C42.3583 22.4802 42.216 22.1862 41.9718 21.9696C41.2743 21.3463 40.9072 20.531 40.5611 19.6894C39.1873 16.3597 39.5246 13.199 41.4922 10.2092C42.7746 8.25824 44.6632 7.16478 46.8241 6.41468C47.7763 6.08365 48.7214 6.16641 49.6736 6.12063C50.8647 6.06428 52.0998 6.1488 53.1415 6.65239C55.1794 7.63668 56.9415 8.9608 58.0536 11.0949C59.2236 13.3434 59.7313 15.5761 58.9126 18.0325C58.8371 18.2578 58.5279 18.5572 58.9302 18.8002C58.7932 19.2474 58.5648 19.6471 58.2767 20.0151C58.238 20.0662 58.2011 20.119 58.1625 20.1701C57.7725 20.8938 57.2349 21.5012 56.6798 22.0981C56.497 22.2954 56.1562 22.4204 56.2739 22.7989C56.0895 22.8165 55.9735 22.9169 55.847 23.056C54.0006 25.1021 51.4972 25.5458 48.9779 25.5053C47.5057 25.4806 45.9158 25.1355 44.7124 24.0192C44.5192 23.8361 44.282 23.8642 44.0483 23.8889ZM49.4786 22.8077C53.6335 22.7743 56.5656 19.6911 56.5708 15.4775C56.5743 12.2905 53.2417 9.0506 50.0478 8.92911C44.9654 8.73718 42.5445 12.4613 42.6341 16.0005C42.7325 19.8179 45.3378 22.6651 49.4786 22.8077Z" fill="white"/>
<path d="M58.9286 18.7968C58.528 18.5538 58.8372 18.2545 58.911 18.0291C59.7297 15.5728 59.222 13.3401 58.0519 11.0915C56.9416 8.95743 55.1796 7.63507 53.1399 6.64902C52.0981 6.14543 50.8631 6.05916 49.672 6.11726C48.7198 6.16304 47.7746 6.08205 46.8224 6.41132C44.6598 7.16142 42.773 8.25487 41.4905 10.2058C39.5229 13.1974 39.1874 16.3563 40.5594 19.686C40.9073 20.5277 41.2744 21.3429 41.9701 21.9662C42.2126 22.1846 42.3549 22.4769 42.3777 22.8149C40.8704 22.5086 39.3384 22.741 37.8241 22.616C38.1772 22.0648 38.1087 21.5789 37.68 21.0735C37.4657 20.8217 37.362 20.4713 37.283 20.1209C36.8192 18.0995 36.2043 16.094 36.9404 14.0057C38.1421 12.7995 38.323 11.3803 37.8083 9.81847C38.056 9.65471 38.0823 9.36418 38.135 9.12647C38.4776 7.54175 39.5967 6.45005 40.7351 5.51859C42.2706 4.26314 44.0484 3.40739 46.0196 2.84041C49.8301 1.74343 53.2646 2.2928 56.4778 4.52902C56.6869 4.67516 56.8889 4.72975 57.1278 4.70862L57.1208 4.70158C57.1507 5.0238 57.0189 5.50802 57.6479 5.22101C60.6169 8.73557 61.1913 14.8262 58.9286 18.7968Z" fill="white"/>
<path d="M30.9865 30.7227C30.7335 31.316 30.9865 31.6682 31.3994 32.1507C32.4078 33.3322 33.5884 34.3165 34.783 35.2585C36.4168 36.5474 38.2193 37.5616 40.1764 38.3786C41.8102 39.0618 43.4704 39.5196 45.1692 39.8401C47.9291 40.3595 50.7242 40.3842 53.5052 39.9545C54.5049 39.7996 55.4922 39.5425 56.476 39.3013C57.1576 39.134 57.82 38.9069 58.3259 38.3698C58.4717 38.2149 58.6421 37.956 58.8776 38.2871C57.9956 39.9176 56.982 41.4389 55.4008 42.4883C55.1707 42.5077 54.8949 42.4496 54.7174 42.557C53.5193 43.2754 52.1982 43.1169 50.8946 43.1944C48.9797 43.3071 47.0367 43.2948 45.1956 42.9303C42.9978 42.4954 40.7983 41.9231 38.7024 41.0128C36.7418 40.1623 34.913 39.0953 33.2247 37.8328C32.2462 37.1003 31.2817 36.3044 30.4033 35.3976C29.495 34.4591 28.7642 33.3639 27.7804 32.5046C27.2217 32.0168 26.9652 31.4516 27.306 30.7262C28.5323 30.7227 29.7585 30.7227 30.9865 30.7227Z" fill="white"/>
<path d="M60.2373 31.411C58.5227 33.0451 56.3477 33.6437 54.1623 34.3692C52.1525 35.0365 50.1427 34.8481 48.1417 34.9714C47.3915 35.0172 46.4956 34.7971 45.6769 34.6069C43.2279 34.0382 40.9616 33.0785 38.8623 31.6893C38.3545 31.3529 38.6901 31.0466 38.6989 30.7155C39.5421 30.7103 40.3854 30.7085 41.2269 30.6962C42.3653 30.6786 43.256 30.0975 44.0993 29.4143C44.2644 29.9425 44.5596 30.2771 45.1393 30.4479C46.6677 30.9004 48.2506 31.1152 49.8001 31.0025C51.759 30.8599 53.7424 30.8229 55.5905 29.7823C56.9257 29.0304 58.3768 28.5286 59.2675 27.1746C59.9826 28.4969 60.4024 29.888 60.2373 31.411Z" fill="white"/>
<path d="M57.1278 4.71197C56.8889 4.73134 56.6886 4.67675 56.4778 4.53237C53.2628 2.29439 49.83 1.74502 46.0195 2.84376C44.0466 3.4125 42.2705 4.26648 40.7351 5.52194C39.5966 6.4534 38.4776 7.54334 38.135 9.12982C38.084 9.36753 38.0559 9.65806 37.8082 9.82181C37.0141 8.37091 35.7528 7.66483 34.1418 7.52221C34.0697 7.13307 33.8554 6.76682 34.1172 6.34951C35.5086 4.1309 37.2425 2.24861 39.4614 0.838204C39.7495 0.65508 40.136 0.575844 40.1044 0.114514C43.82 0.0951453 47.5673 -0.360902 51.2126 0.700861C53.5914 1.39286 55.5607 2.77861 57.1278 4.71197Z" fill="white"/>
<path d="M6.73386 57.0819C7.98646 57.7105 8.41512 58.4888 8.23241 59.7073C8.0743 60.7514 7.16603 61.6371 5.93802 61.7744C4.11095 61.9805 2.26806 61.829 0.433955 61.8625C0.0931345 61.8678 -0.00173296 61.7199 2.38454e-05 61.3835C0.0123215 58.5821 0.00880787 55.7789 0.00353745 52.9775C0.00353745 52.6781 0.0492144 52.4704 0.4199 52.4739C2.08008 52.4915 3.74729 52.4228 5.40044 52.5355C6.48439 52.6077 7.41549 53.1307 7.79145 54.2752C8.10241 55.219 7.78091 56.0642 6.73386 57.0819ZM3.88959 58.1085C3.88959 58.1049 3.88959 58.1014 3.88959 58.0979C3.77364 58.0979 3.65593 58.0979 3.53998 58.0979C2.3436 58.0979 2.03967 58.4958 2.34009 59.6439C2.38928 59.8323 2.45604 59.9837 2.66861 59.9749C3.53998 59.9432 4.4219 60.1105 5.28273 59.8604C5.7518 59.7231 6.06803 59.4026 6.02762 58.9096C5.98546 58.406 5.57963 58.1683 5.11584 58.1173C4.71177 58.0732 4.29892 58.1085 3.88959 58.1085ZM3.70161 56.3388C4.02838 56.2878 4.47285 56.4216 4.89624 56.2526C5.36882 56.0642 5.73248 55.7419 5.67275 55.2172C5.61301 54.6995 5.22652 54.4143 4.69245 54.3967C4.10919 54.3791 3.52417 54.4108 2.94443 54.3632C2.41739 54.321 2.32076 54.5516 2.31549 55.0235C2.30144 56.3406 2.28211 56.3406 3.70161 56.3388Z" fill="white"/>
<path d="M8.90522 37.919C8.3202 37.8627 7.62626 37.9948 6.93233 37.7747C5.18606 37.2182 4.20928 35.7638 4.33577 33.8217C4.43766 32.2528 5.76229 30.9111 7.46991 30.6769C8.51345 30.5342 9.56402 30.529 10.6058 30.6804C12.4856 30.9516 13.9209 32.6789 13.7716 34.4626C13.6082 36.4241 12.085 37.8785 10.149 37.9173C9.77132 37.9261 9.39185 37.919 8.90522 37.919Z" fill="white"/>
<path d="M40.1061 0.114622C40.1377 0.575952 39.7512 0.655188 39.4631 0.838312C37.2442 2.24871 35.5103 4.13101 34.1189 6.34962C33.8571 6.76693 34.0714 7.13318 34.1435 7.52232C33.3283 7.53464 32.5114 7.55929 31.6962 7.55577C29.704 7.54697 28.144 6.13833 27.9964 4.22962C27.8383 2.18356 29.1208 0.486151 31.1077 0.133991C32.1214 -0.045611 33.1456 0.0547547 34.1646 0.0529939C36.1445 0.0529939 38.1244 0.0917316 40.1061 0.114622Z" fill="white"/>
<path d="M59.2693 27.1728C58.3786 28.5251 56.9293 29.0269 55.5923 29.7805C53.7442 30.8212 51.7607 30.8599 49.8019 31.0008C48.2524 31.1135 46.6695 30.8986 45.1411 30.4461C44.5614 30.2753 44.2662 29.9408 44.1011 29.4125C44.6369 28.6959 44.99 27.8947 45.1833 27.0231C45.3185 27.0707 45.4608 27.1024 45.5856 27.1693C47.1509 28.0092 48.8603 28.1465 50.5591 27.981C52.1103 27.8296 53.5878 27.3542 55.0196 26.634C56.1369 26.0723 57.0909 25.4595 57.6987 24.3625C58.4138 25.1901 59.0128 26.0864 59.2693 27.1728Z" fill="white"/>
<path d="M18.0758 22.6563C15.9623 22.6475 14.2635 20.9078 14.2916 18.7808C14.3197 16.6907 16.0115 15.0338 18.1127 15.0391C20.256 15.0444 21.9284 16.7523 21.8986 18.904C21.8722 20.9959 20.1716 22.6651 18.0758 22.6563Z" fill="white"/>
<path d="M33.2651 22.6175C31.3941 22.6175 29.5249 22.6175 27.6539 22.6175C27.5871 22.2477 27.826 21.9325 27.7452 21.5205C27.5045 20.3003 26.9266 19.1734 26.9845 17.8563C27.0267 16.8597 26.7913 15.8701 27.6539 15.0989C29.3492 15.0989 31.0427 15.0989 32.7381 15.0989C32.5659 15.5567 32.204 16.0391 32.2567 16.4705C32.4324 17.8915 32.3797 19.3618 33.0683 20.7C33.3705 21.2793 33.5128 21.9466 33.2651 22.6175Z" fill="white"/>
<path d="M28.9012 58.2368C31.0779 58.3565 31.0972 58.3565 31.1218 56.3457C31.1289 55.8087 31.2799 55.5991 31.8158 55.666C32.074 55.6977 32.3446 55.7012 32.6011 55.6643C33.1527 55.585 33.3424 55.8139 33.2757 56.3475C33.2441 56.6063 33.2722 56.8722 33.2704 57.1363C33.2634 57.7596 33.1035 58.4886 34.1699 58.2843C34.444 58.2315 34.4967 58.4516 34.4931 58.6805C34.4879 59.0309 34.4703 59.3831 34.4967 59.7317C34.5265 60.1349 34.3315 60.2688 33.9784 60.2071C33.2862 60.0874 33.237 60.473 33.2528 61.0153C33.2616 61.2883 33.4812 61.7655 33.0332 61.8271C32.4377 61.9098 31.7841 62.0172 31.2272 61.7566C30.9778 61.6404 31.1218 61.1562 31.1447 60.8463C31.1798 60.3462 30.9989 60.186 30.5017 60.2001C29.3352 60.2318 28.1669 60.1878 27.0021 60.2212C26.4856 60.2353 26.2748 60.1156 26.2889 59.5486C26.3029 58.9781 26.4259 58.4587 26.6402 57.9427C27.2832 56.3844 27.9526 54.8367 28.5341 53.2555C28.7677 52.6198 29.091 52.3821 29.7445 52.4667C30.1398 52.5177 30.5491 52.4755 31.0709 52.4755C30.3348 54.4352 29.6303 56.2999 28.9012 58.2368Z" fill="white"/>
<path d="M50.7752 58.5643C50.777 59.4412 50.7542 60.3198 50.7858 61.1967C50.8016 61.6615 50.7067 61.8834 50.1744 61.8746C49.0834 61.857 48.0083 61.7637 46.898 61.938C45.4978 62.1563 44.2294 61.2988 43.6936 60.0081C43.1244 58.6365 43.2877 57.3212 44.2645 56.1625C45.0849 55.1888 46.5659 54.7856 47.8537 55.3015C48.4176 55.5269 48.8357 55.1941 49.3364 55.2135C50.777 55.2681 50.7787 55.2293 50.777 56.6327C50.7735 57.2771 50.7735 57.9198 50.7752 58.5643ZM48.5494 58.5449C48.5511 57.2507 48.2226 56.8563 47.1527 56.8686C46.2286 56.8792 45.5312 57.6082 45.5417 58.552C45.5523 59.4887 46.2778 60.2036 47.2072 60.1895C48.2349 60.1772 48.5459 59.7951 48.5494 58.5449Z" fill="white"/>
<path d="M19.2423 64.9701C19.3776 64.6127 19.4356 64.2817 19.6077 64.0281C20.574 62.6036 20.2911 61.283 19.4918 59.8673C18.6713 58.4129 18.0459 56.8493 17.287 55.2294C18.0161 55.2294 18.6503 55.2452 19.2827 55.2241C19.7272 55.21 19.7834 55.5657 19.9134 55.8369C20.4492 56.955 20.9692 58.0801 21.5648 59.3514C22.0778 58.1365 22.5627 57.1152 22.9351 56.0534C23.1688 55.3843 23.5219 55.1273 24.2141 55.2188C24.6357 55.2752 25.0714 55.2294 25.6195 55.2294C24.8781 56.9902 24.1842 58.6383 23.4903 60.2882C22.9492 61.5736 22.3712 62.8449 21.8863 64.1531C21.6439 64.8099 21.3013 65.0793 20.6073 64.9825C20.1804 64.9226 19.7395 64.9701 19.2423 64.9701Z" fill="white"/>
<path d="M57.9991 58.5187C57.9991 57.6418 58.0395 56.7632 57.9851 55.8916C57.9499 55.3228 58.1695 55.1327 58.6737 55.2401C59.2271 55.3563 59.8859 54.9143 60.3568 55.55C60.3726 55.5711 60.6449 55.3933 60.803 55.3193C62.9182 54.3403 64.9701 55.6362 64.9912 57.9676C65.0017 59.0769 64.9789 60.1879 65.0017 61.2972C65.0105 61.7057 64.8823 61.8431 64.4642 61.8695C62.7847 61.9804 62.7882 61.9963 62.7829 60.3464C62.7811 59.6174 62.8005 58.8849 62.7495 58.1577C62.6968 57.3953 62.2506 57.0062 61.4741 57.0361C60.6747 57.066 60.2636 57.4869 60.2601 58.288C60.2549 59.2811 60.2355 60.2742 60.2707 61.2673C60.2865 61.7304 60.1319 61.8536 59.6839 61.873C58.0044 61.947 58.0062 61.9646 58.0062 60.2707C58.0062 59.6861 58.0062 59.1033 58.0062 58.5187C58.0026 58.5187 58.0009 58.5187 57.9991 58.5187Z" fill="white"/>
<path d="M16.247 58.5328C16.247 59.4379 16.2259 60.3447 16.2575 61.2497C16.2733 61.6899 16.1626 61.9488 15.6918 61.8678C15.1173 61.7692 14.4761 62.1389 13.9543 61.6036C13.7997 61.4452 13.6609 61.6846 13.5186 61.748C11.4193 62.6865 9.48151 61.5332 9.37083 59.2424C9.31461 58.0768 9.3638 56.9058 9.34272 55.7366C9.33569 55.3669 9.44637 55.2436 9.83287 55.2154C11.537 55.0922 11.5352 55.0781 11.5352 56.7984C11.5352 57.4411 11.5159 58.0856 11.5422 58.7265C11.5774 59.6263 12.0306 60.0805 12.8194 60.0524C13.617 60.0242 14.0193 59.5682 14.0211 58.6895C14.0228 57.7545 14.0422 56.8195 14.0123 55.8846C13.9965 55.4197 14.0931 55.2243 14.6202 55.2119C16.2505 55.1785 16.2505 55.1521 16.247 56.7773C16.247 57.3636 16.247 57.9482 16.247 58.5328Z" fill="white"/>
<path d="M33.2651 22.6176C33.5128 21.9467 33.3688 21.2811 33.0701 20.7001C32.3815 19.3619 32.4342 17.8916 32.2585 16.4706C32.2058 16.041 32.5677 15.5585 32.7399 15.099C33.4601 15.0796 34.1875 15.1166 34.9007 15.0285C35.6807 14.9317 36.3624 14.5496 36.9421 14.009C36.206 16.0956 36.8209 18.1029 37.2847 20.1243C37.3655 20.4747 37.4674 20.8251 37.6817 21.0769C38.1104 21.5822 38.1789 22.0665 37.8258 22.6194C36.3044 22.6176 34.7848 22.6176 33.2651 22.6176Z" fill="white"/>
<path d="M57.7005 24.3592C57.0909 25.4561 56.137 26.0689 55.0214 26.6306C53.5896 27.3508 52.1121 27.8262 50.5609 27.9776C48.8603 28.1449 47.1527 28.0075 45.5874 27.1659C45.4626 27.099 45.3203 27.0673 45.1851 27.0197C45.1851 25.8382 44.781 24.8029 44.0502 23.8855C44.2838 23.8609 44.521 23.8327 44.7125 24.0105C45.9177 25.1269 47.5058 25.4737 48.978 25.4966C51.4973 25.5371 54.0007 25.0934 55.8471 23.0474C55.9736 22.9083 56.0896 22.8079 56.274 22.7903C56.8415 23.2305 57.3457 23.727 57.7005 24.3592Z" fill="white"/>
<path d="M37.6958 59.1877C38.1473 60.128 38.8922 60.5646 39.6634 60.1368C40.5453 59.6473 41.4167 59.9114 42.3074 59.7916C41.942 61.1545 40.8896 61.931 39.4034 61.9786C37.5096 62.0402 36.1691 61.1968 35.6526 59.6191C35.0535 57.7914 35.9618 55.8897 37.7186 55.2893C39.6704 54.6219 41.631 55.4618 42.2617 57.2367C42.3004 57.3459 42.3531 57.4515 42.3759 57.5642C42.6623 58.9799 42.52 59.1542 41.0882 59.1542C40.0376 59.1542 38.987 59.156 37.9365 59.1578C37.882 59.1578 37.824 59.1718 37.6958 59.1877ZM38.9941 57.9041C39.2558 57.9041 39.5176 57.9199 39.7776 57.8988C39.9621 57.8829 40.2185 58.0168 40.3134 57.7562C40.3907 57.5449 40.2379 57.3617 40.1026 57.2156C39.5703 56.6433 38.9361 56.6204 38.2808 56.948C37.9681 57.1047 37.622 57.3793 37.7081 57.7368C37.7906 58.0801 38.2088 57.8565 38.474 57.9023C38.6427 57.9305 38.8201 57.9058 38.9941 57.9041Z" fill="white"/>
<path d="M27.6556 15.1008C26.7931 15.872 27.0302 16.8616 26.9863 17.8582C26.9301 19.1753 27.5081 20.3022 27.747 21.5224C27.8278 21.9344 27.5889 22.2496 27.6556 22.6194C24.6357 23.086 22.7155 20.5681 23.0721 18.2403C23.3866 16.1837 25.1663 14.9177 27.6556 15.1008Z" fill="white"/>
<path d="M52.3545 58.5396C52.3545 57.6047 52.3703 56.6697 52.3475 55.7347C52.3387 55.3526 52.4828 55.1431 52.8429 55.2487C53.4016 55.4125 54.1781 54.7557 54.5329 55.6995C54.5821 55.8298 54.7279 55.7629 54.8263 55.6995C54.9247 55.6361 55.0143 55.5568 55.1197 55.5093C55.6468 55.2734 56.3354 54.812 56.7237 55.2205C57.0223 55.534 56.8273 56.3263 56.8308 56.9074C56.8326 57.2543 56.5462 57.1891 56.3214 57.2279C54.7561 57.4885 54.5031 57.7913 54.5048 59.376C54.5048 59.7845 54.5382 60.1966 54.4961 60.6015C54.4539 61.0136 54.7525 61.6351 54.3116 61.7936C53.7951 61.9803 53.1609 61.8746 52.5811 61.8306C52.2438 61.8042 52.3633 61.4696 52.3598 61.2583C52.3475 60.3515 52.3545 59.4447 52.3545 58.5396Z" fill="white"/>
<path d="M57.6478 5.22622C57.0188 5.515 57.1506 5.02901 57.1207 4.70679C57.328 4.84765 57.5547 4.96915 57.6478 5.22622Z" fill="white"/>
<path d="M58.1608 20.1667C58.1994 20.1156 58.2363 20.0628 58.275 20.0117C58.2381 20.0628 58.1994 20.1138 58.1608 20.1667Z" fill="white"/>
<path d="M49.4786 22.8079C45.3361 22.6652 42.7307 19.818 42.6341 16.0006C42.5445 12.4614 44.9636 8.73731 50.0478 8.92924C53.2417 9.05073 56.5744 12.2906 56.5708 15.4777C56.5656 19.6913 53.6335 22.7744 49.4786 22.8079ZM49.5436 20.1737C52.0119 20.1737 53.9462 18.2773 53.9567 15.8703C53.9655 13.8207 52.293 11.5405 49.6824 11.5159C47.3353 11.493 45.1586 13.4158 45.1288 15.8809C45.1024 17.9621 47.3424 20.4572 49.5436 20.1737Z" fill="white"/>
<path d="M49.5436 20.1737C47.3423 20.4555 45.1024 17.9622 45.1288 15.8809C45.1586 13.414 47.3353 11.4912 49.6824 11.5159C52.293 11.5423 53.9655 13.8207 53.9567 15.8703C53.9479 18.2791 52.0119 20.1737 49.5436 20.1737Z" fill="white"/>
</svg>
