<svg width="370" height="370" viewBox="0 0 370 370" fill="none" xmlns="http://www.w3.org/2000/svg">
<path d="M315.34 241.29C303.66 251.18 289.81 256.66 274.88 256.99C241.15 257.73 207.39 257.22 172.75 257.22C174.8 255.71 176.27 254.68 177.69 253.57C184.89 247.94 187.81 238.43 184.94 230.01C181.9 221.09 173.99 215.29 164.64 215.28C145.02 215.26 125.4 215.27 105.78 215.33C93.37 215.37 83.12 206.11 83.75 194.57C84.44 181.8 93.82 173.88 105.57 174.13C122.19 174.48 138.81 174.39 155.43 174.48C153.49 178.61 154.95 181.81 158.13 184.58C163.73 189.46 167.89 195.68 173.06 201.01C178.06 206.16 183.55 210.68 189.12 214.84C198.72 222.01 209.14 228.07 220.3 232.9C232.23 238.07 244.75 241.32 257.26 243.79C267.74 245.86 278.8 245.93 289.7 245.29C297.12 244.86 304.64 245.75 311.46 241.67C312.47 241.07 314.03 241.4 315.34 241.29Z" fill="white"/>
<path d="M342.88 178.39C344.01 192.14 342.61 205.38 335.13 217.43C333.79 215.55 332.82 217.02 331.99 217.9C329.11 220.95 325.34 222.24 321.46 223.19C315.85 224.56 310.24 226.02 304.55 226.9C288.72 229.34 272.81 229.21 257.1 226.25C247.43 224.43 237.98 221.83 228.68 217.95C217.55 213.31 207.29 207.55 197.98 200.23C191.18 194.88 184.46 189.29 178.72 182.58C176.38 179.84 174.94 177.84 176.37 174.47C191.01 174.45 205.65 174.44 220.28 174.42C220.23 176.3 218.32 178.05 221.21 179.95C233.17 187.84 246.06 193.28 260 196.52C264.66 197.6 269.76 198.85 274.03 198.59C285.42 197.9 296.86 198.96 308.3 195.17C320.75 191.07 333.12 187.67 342.88 178.39Z" fill="white"/>
<path d="M250.73 135.67C247.98 133.65 245.4 131.37 242.16 130.11C241.84 129.93 241.51 129.75 241.19 129.57L241.23 129.59C241.11 127.67 240.3 126 238.91 124.77C234.94 121.23 232.85 116.6 230.88 111.82C223.06 92.9102 224.98 74.9602 236.18 57.9802C243.48 46.9002 254.23 40.6902 266.53 36.4302C271.95 34.5502 277.33 35.0202 282.75 34.7602C289.53 34.4402 296.56 34.9202 302.49 37.7802C314.09 43.3702 324.12 50.8902 330.45 63.0102C337.11 75.7802 340 88.4602 335.34 102.41C334.91 103.69 333.15 105.39 335.44 106.77C334.66 109.31 333.36 111.58 331.72 113.67C331.5 113.96 331.29 114.26 331.07 114.55C328.85 118.66 325.79 122.11 322.63 125.5C321.59 126.62 319.65 127.33 320.32 129.48C319.27 129.58 318.61 130.15 317.89 130.94C307.38 142.56 293.13 145.08 278.79 144.85C270.41 144.71 261.36 142.75 254.51 136.41C253.41 135.37 252.06 135.53 250.73 135.67ZM281.64 129.53C305.29 129.34 321.98 111.83 322.01 87.9002C322.03 69.8002 303.06 51.4002 284.88 50.7102C255.95 49.6202 242.17 70.7702 242.68 90.8702C243.24 112.55 258.07 128.72 281.64 129.53Z" fill="white"/>
<path d="M335.43 106.75C333.15 105.37 334.91 103.67 335.33 102.39C339.99 88.44 337.1 75.76 330.44 62.99C324.12 50.87 314.09 43.36 302.48 37.76C296.55 34.9 289.52 34.41 282.74 34.74C277.32 35 271.94 34.54 266.52 36.41C254.21 40.67 243.47 46.88 236.17 57.96C224.97 74.95 223.06 92.89 230.87 111.8C232.85 116.58 234.94 121.21 238.9 124.75C240.28 125.99 241.09 127.65 241.22 129.57C232.64 127.83 223.92 129.15 215.3 128.44C217.31 125.31 216.92 122.55 214.48 119.68C213.26 118.25 212.67 116.26 212.22 114.27C209.58 102.79 206.08 91.4 210.27 79.54C217.11 72.69 218.14 64.63 215.21 55.76C216.62 54.83 216.77 53.18 217.07 51.83C219.02 42.83 225.39 36.63 231.87 31.34C240.61 24.21 250.73 19.35 261.95 16.13C283.64 9.90003 303.19 13.02 321.48 25.72C322.67 26.55 323.82 26.86 325.18 26.74L325.14 26.7C325.31 28.53 324.56 31.28 328.14 29.65C345.04 49.61 348.31 84.2 335.43 106.75Z" fill="white"/>
<path d="M176.38 174.48C174.94 177.85 176.38 179.85 178.73 182.59C184.47 189.3 191.19 194.89 197.99 200.24C207.29 207.56 217.55 213.32 228.69 217.96C237.99 221.84 247.44 224.44 257.11 226.26C272.82 229.21 288.73 229.35 304.56 226.91C310.25 226.03 315.87 224.57 321.47 223.2C325.35 222.25 329.12 220.96 332 217.91C332.83 217.03 333.8 215.56 335.14 217.44C330.12 226.7 324.35 235.34 315.35 241.3C314.04 241.41 312.47 241.08 311.46 241.69C304.64 245.77 297.12 244.87 289.7 245.31C278.8 245.95 267.74 245.88 257.26 243.81C244.75 241.34 232.23 238.09 220.3 232.92C209.14 228.09 198.73 222.03 189.12 214.86C183.55 210.7 178.06 206.18 173.06 201.03C167.89 195.7 163.73 189.48 158.13 184.6C154.95 181.83 153.49 178.62 155.43 174.5C162.41 174.48 169.39 174.48 176.38 174.48Z" fill="white"/>
<path d="M342.88 178.39C333.12 187.67 320.74 191.07 308.3 195.19C296.86 198.98 285.42 197.91 274.03 198.61C269.76 198.87 264.66 197.62 260 196.54C246.06 193.31 233.16 187.86 221.21 179.97C218.32 178.06 220.23 176.32 220.28 174.44C225.08 174.41 229.88 174.4 234.67 174.33C241.15 174.23 246.22 170.93 251.02 167.05C251.96 170.05 253.64 171.95 256.94 172.92C265.64 175.49 274.65 176.71 283.47 176.07C294.62 175.26 305.91 175.05 316.43 169.14C324.03 164.87 332.29 162.02 337.36 154.33C341.43 161.84 343.82 169.74 342.88 178.39Z" fill="white"/>
<path d="M325.18 26.7601C323.82 26.8701 322.68 26.5601 321.48 25.7401C303.18 13.0301 283.64 9.9101 261.95 16.1501C250.72 19.3801 240.61 24.2301 231.87 31.3601C225.39 36.6501 219.02 42.8401 217.07 51.8501C216.78 53.2001 216.62 54.8501 215.21 55.7801C210.69 47.5401 203.51 43.5301 194.34 42.7201C193.93 40.5101 192.71 38.4301 194.2 36.0601C202.12 23.4601 211.99 12.7701 224.62 4.7601C226.26 3.7201 228.46 3.2701 228.28 0.650099C249.43 0.540099 270.76 -2.0499 291.51 3.9801C305.05 7.9101 316.26 15.7801 325.18 26.7601Z" fill="white"/>
<path d="M38.3299 324.18C45.4599 327.75 47.8999 332.17 46.8599 339.09C45.9599 345.02 40.7899 350.05 33.7999 350.83C23.3999 352 12.9099 351.14 2.46989 351.33C0.529891 351.36 -0.0101084 350.52 -0.000108409 348.61C0.0698916 332.7 0.0498916 316.78 0.0198916 300.87C0.0198916 299.17 0.279892 297.99 2.38989 298.01C11.8399 298.11 21.3299 297.72 30.7399 298.36C36.9099 298.77 42.2099 301.74 44.3499 308.24C46.1199 313.6 44.2899 318.4 38.3299 324.18ZM22.1399 330.01C22.1399 329.99 22.1399 329.97 22.1399 329.95C21.4799 329.95 20.8099 329.95 20.1499 329.95C13.3399 329.95 11.6099 332.21 13.3199 338.73C13.5999 339.8 13.9799 340.66 15.1899 340.61C20.1499 340.43 25.1699 341.38 30.0699 339.96C32.7399 339.18 34.5399 337.36 34.3099 334.56C34.0699 331.7 31.7599 330.35 29.1199 330.06C26.8199 329.81 24.4699 330.01 22.1399 330.01ZM21.0699 319.96C22.9299 319.67 25.4599 320.43 27.8699 319.47C30.5599 318.4 32.6299 316.57 32.2899 313.59C31.9499 310.65 29.7499 309.03 26.7099 308.93C23.3899 308.83 20.0599 309.01 16.7599 308.74C13.7599 308.5 13.2099 309.81 13.1799 312.49C13.0999 319.97 12.9899 319.97 21.0699 319.96Z" fill="white"/>
<path d="M50.6899 215.35C47.3599 215.03 43.4099 215.78 39.4599 214.53C29.5199 211.37 23.9599 203.11 24.6799 192.08C25.2599 183.17 32.7999 175.55 42.5199 174.22C48.4599 173.41 54.4399 173.38 60.3699 174.24C71.07 175.78 79.2399 185.59 78.3899 195.72C77.4599 206.86 68.79 215.12 57.77 215.34C55.62 215.39 53.4599 215.35 50.6899 215.35Z" fill="white"/>
<path d="M228.29 0.649979C228.47 3.26998 226.27 3.71998 224.63 4.75998C212 12.77 202.13 23.46 194.21 36.06C192.72 38.43 193.94 40.51 194.35 42.72C189.71 42.79 185.06 42.93 180.42 42.91C169.08 42.86 160.2 34.86 159.36 24.02C158.46 12.4 165.76 2.75998 177.07 0.759979C182.84 -0.260021 188.67 0.309979 194.47 0.299979C205.74 0.299979 217.01 0.519979 228.29 0.649979Z" fill="white"/>
<path d="M337.37 154.32C332.3 162 324.05 164.85 316.44 169.13C305.92 175.04 294.63 175.26 283.48 176.06C274.66 176.7 265.65 175.48 256.95 172.91C253.65 171.94 251.97 170.04 251.03 167.04C254.08 162.97 256.09 158.42 257.19 153.47C257.96 153.74 258.77 153.92 259.48 154.3C268.39 159.07 278.12 159.85 287.79 158.91C296.62 158.05 305.03 155.35 313.18 151.26C319.54 148.07 324.97 144.59 328.43 138.36C332.5 143.06 335.91 148.15 337.37 154.32Z" fill="white"/>
<path d="M102.89 128.67C90.8599 128.62 81.1899 118.74 81.3499 106.66C81.5099 94.7902 91.1399 85.3802 103.1 85.4102C115.3 85.4402 124.82 95.1402 124.65 107.36C124.5 119.24 114.82 128.72 102.89 128.67Z" fill="white"/>
<path d="M189.35 128.45C178.7 128.45 168.06 128.45 157.41 128.45C157.03 126.35 158.39 124.56 157.93 122.22C156.56 115.29 153.27 108.89 153.6 101.41C153.84 95.75 152.5 90.13 157.41 85.75C167.06 85.75 176.7 85.75 186.35 85.75C185.37 88.35 183.31 91.09 183.61 93.54C184.61 101.61 184.31 109.96 188.23 117.56C189.95 120.85 190.76 124.64 189.35 128.45Z" fill="white"/>
<path d="M164.51 330.74C176.9 331.42 177.01 331.42 177.15 320C177.19 316.95 178.05 315.76 181.1 316.14C182.57 316.32 184.11 316.34 185.57 316.13C188.71 315.68 189.79 316.98 189.41 320.01C189.23 321.48 189.39 322.99 189.38 324.49C189.34 328.03 188.43 332.17 194.5 331.01C196.06 330.71 196.36 331.96 196.34 333.26C196.31 335.25 196.21 337.25 196.36 339.23C196.53 341.52 195.42 342.28 193.41 341.93C189.47 341.25 189.19 343.44 189.28 346.52C189.33 348.07 190.58 350.78 188.03 351.13C184.64 351.6 180.92 352.21 177.75 350.73C176.33 350.07 177.15 347.32 177.28 345.56C177.48 342.72 176.45 341.81 173.62 341.89C166.98 342.07 160.33 341.82 153.7 342.01C150.76 342.09 149.56 341.41 149.64 338.19C149.72 334.95 150.42 332 151.64 329.07C155.3 320.22 159.11 311.43 162.42 302.45C163.75 298.84 165.59 297.49 169.31 297.97C171.56 298.26 173.89 298.02 176.86 298.02C172.67 309.15 168.66 319.74 164.51 330.74Z" fill="white"/>
<path d="M289.02 332.6C289.03 337.58 288.9 342.57 289.08 347.55C289.17 350.19 288.63 351.45 285.6 351.4C279.39 351.3 273.27 350.77 266.95 351.76C258.98 353 251.76 348.13 248.71 340.8C245.47 333.01 246.4 325.54 251.96 318.96C256.63 313.43 265.06 311.14 272.39 314.07C275.6 315.35 277.98 313.46 280.83 313.57C289.03 313.88 289.04 313.66 289.03 321.63C289.01 325.29 289.01 328.94 289.02 332.6ZM276.35 332.49C276.36 325.14 274.49 322.9 268.4 322.97C263.14 323.03 259.17 327.17 259.23 332.53C259.29 337.85 263.42 341.91 268.71 341.83C274.56 341.76 276.33 339.59 276.35 332.49Z" fill="white"/>
<path d="M109.53 368.98C110.3 366.95 110.63 365.07 111.61 363.63C117.11 355.54 115.5 348.04 110.95 340C106.28 331.74 102.72 322.86 98.3999 313.66C102.55 313.66 106.16 313.75 109.76 313.63C112.29 313.55 112.61 315.57 113.35 317.11C116.4 323.46 119.36 329.85 122.75 337.07C125.67 330.17 128.43 324.37 130.55 318.34C131.88 314.54 133.89 313.08 137.83 313.6C140.23 313.92 142.71 313.66 145.83 313.66C141.61 323.66 137.66 333.02 133.71 342.39C130.63 349.69 127.34 356.91 124.58 364.34C123.2 368.07 121.25 369.6 117.3 369.05C114.87 368.71 112.36 368.98 109.53 368.98Z" fill="white"/>
<path d="M330.14 332.34C330.14 327.36 330.37 322.37 330.06 317.42C329.86 314.19 331.11 313.11 333.98 313.72C337.13 314.38 340.88 311.87 343.56 315.48C343.65 315.6 345.2 314.59 346.1 314.17C358.14 308.61 369.82 315.97 369.94 329.21C370 335.51 369.87 341.82 370 348.12C370.05 350.44 369.32 351.22 366.94 351.37C357.38 352 357.4 352.09 357.37 342.72C357.36 338.58 357.47 334.42 357.18 330.29C356.88 325.96 354.34 323.75 349.92 323.92C345.37 324.09 343.03 326.48 343.01 331.03C342.98 336.67 342.87 342.31 343.07 347.95C343.16 350.58 342.28 351.28 339.73 351.39C330.17 351.81 330.18 351.91 330.18 342.29C330.18 338.97 330.18 335.66 330.18 332.34C330.16 332.34 330.15 332.34 330.14 332.34Z" fill="white"/>
<path d="M92.48 332.42C92.48 337.56 92.36 342.71 92.54 347.85C92.63 350.35 92 351.82 89.32 351.36C86.05 350.8 82.4 352.9 79.43 349.86C78.55 348.96 77.76 350.32 76.95 350.68C65 356.01 53.97 349.46 53.34 336.45C53.02 329.83 53.3 323.18 53.18 316.54C53.14 314.44 53.77 313.74 55.97 313.58C65.67 312.88 65.66 312.8 65.66 322.57C65.66 326.22 65.55 329.88 65.7 333.52C65.9 338.63 68.48 341.21 72.97 341.05C77.51 340.89 79.8 338.3 79.81 333.31C79.82 328 79.93 322.69 79.76 317.38C79.67 314.74 80.22 313.63 83.22 313.56C92.5 313.37 92.5 313.22 92.48 322.45C92.48 325.78 92.48 329.1 92.48 332.42Z" fill="white"/>
<path d="M189.35 128.45C190.76 124.64 189.94 120.86 188.24 117.56C184.32 109.96 184.62 101.61 183.62 93.5401C183.32 91.1001 185.38 88.3601 186.36 85.7501C190.46 85.6401 194.6 85.8501 198.66 85.3501C203.1 84.8001 206.98 82.6301 210.28 79.5601C206.09 91.4101 209.59 102.81 212.23 114.29C212.69 116.28 213.27 118.27 214.49 119.7C216.93 122.57 217.32 125.32 215.31 128.46C206.65 128.45 198 128.45 189.35 128.45Z" fill="white"/>
<path d="M328.44 138.34C324.97 144.57 319.54 148.05 313.19 151.24C305.04 155.33 296.63 158.03 287.8 158.89C278.12 159.84 268.4 159.06 259.49 154.28C258.78 153.9 257.97 153.72 257.2 153.45C257.2 146.74 254.9 140.86 250.74 135.65C252.07 135.51 253.42 135.35 254.51 136.36C261.37 142.7 270.41 144.67 278.79 144.8C293.13 145.03 307.38 142.51 317.89 130.89C318.61 130.1 319.27 129.53 320.32 129.43C323.55 131.93 326.42 134.75 328.44 138.34Z" fill="white"/>
<path d="M214.57 336.14C217.14 341.48 221.38 343.96 225.77 341.53C230.79 338.75 235.75 340.25 240.82 339.57C238.74 347.31 232.75 351.72 224.29 351.99C213.51 352.34 205.88 347.55 202.94 338.59C199.53 328.21 204.7 317.41 214.7 314C225.81 310.21 236.97 314.98 240.56 325.06C240.78 325.68 241.08 326.28 241.21 326.92C242.84 334.96 242.03 335.95 233.88 335.95C227.9 335.95 221.92 335.96 215.94 335.97C215.63 335.97 215.3 336.05 214.57 336.14ZM221.96 328.85C223.45 328.85 224.94 328.94 226.42 328.82C227.47 328.73 228.93 329.49 229.47 328.01C229.91 326.81 229.04 325.77 228.27 324.94C225.24 321.69 221.63 321.56 217.9 323.42C216.12 324.31 214.15 325.87 214.64 327.9C215.11 329.85 217.49 328.58 219 328.84C219.96 329 220.97 328.86 221.96 328.85Z" fill="white"/>
<path d="M157.42 85.7602C152.51 90.1402 153.86 95.7602 153.61 101.42C153.29 108.9 156.58 115.3 157.94 122.23C158.4 124.57 157.04 126.36 157.42 128.46C140.23 131.11 129.3 116.81 131.33 103.59C133.12 91.9102 143.25 84.7202 157.42 85.7602Z" fill="white"/>
<path d="M298.01 332.46C298.01 327.15 298.1 321.84 297.97 316.53C297.92 314.36 298.74 313.17 300.79 313.77C303.97 314.7 308.39 310.97 310.41 316.33C310.69 317.07 311.52 316.69 312.08 316.33C312.64 315.97 313.15 315.52 313.75 315.25C316.75 313.91 320.67 311.29 322.88 313.61C324.58 315.39 323.47 319.89 323.49 323.19C323.5 325.16 321.87 324.79 320.59 325.01C311.68 326.49 310.24 328.21 310.25 337.21C310.25 339.53 310.44 341.87 310.2 344.17C309.96 346.51 311.66 350.04 309.15 350.94C306.21 352 302.6 351.4 299.3 351.15C297.38 351 298.06 349.1 298.04 347.9C297.97 342.75 298.01 337.6 298.01 332.46Z" fill="white"/>
<path d="M328.14 29.68C324.56 31.32 325.31 28.56 325.14 26.73C326.32 27.53 327.61 28.22 328.14 29.68Z" fill="white"/>
<path d="M331.06 114.53C331.28 114.24 331.49 113.94 331.71 113.65C331.5 113.94 331.28 114.23 331.06 114.53Z" fill="white"/>
<path d="M281.64 129.53C258.06 128.72 243.23 112.55 242.68 90.8701C242.17 70.7701 255.94 49.6201 284.88 50.7101C303.06 51.4001 322.03 69.8001 322.01 87.9001C321.98 111.83 305.29 129.34 281.64 129.53ZM282.01 114.57C296.06 114.57 307.07 103.8 307.13 90.1301C307.18 78.4901 297.66 65.5401 282.8 65.4001C269.44 65.2701 257.05 76.1901 256.88 90.1901C256.73 102.01 269.48 116.18 282.01 114.57Z" fill="white"/>
<path d="M282.01 114.57C269.48 116.17 256.73 102.01 256.88 90.19C257.05 76.18 269.44 65.26 282.8 65.4C297.66 65.55 307.18 78.49 307.13 90.13C307.08 103.81 296.06 114.57 282.01 114.57Z" fill="white"/>
</svg>
